/* XPM */
static char *_9b04fa5aa2e419af15ef1f5498bbec17dSSyMtcNzUpE4Aq[] = {
/* columns rows colors chars-per-pixel */
"50 50 220 2 ",
"   c #010201",
".  c #090604",
"X  c #020902",
"o  c #090906",
"O  c #0D0C09",
"+  c #120D0A",
"@  c #180D0A",
"#  c #0A1A0A",
"$  c #17160F",
"%  c #1B120F",
"&  c #1E1410",
"*  c #191716",
"=  c #211612",
"-  c #241A15",
";  c #291C17",
":  c #2D1F1A",
">  c #0F280F",
",  c #112D11",
"<  c #182418",
"1  c #123213",
"2  c #193919",
"3  c #242315",
"4  c #33231D",
"5  c #323B1D",
"6  c #071421",
"7  c #242424",
"8  c #2B2822",
"9  c #2B2B2A",
"0  c #372B27",
"q  c #3D2A22",
"w  c #2E3126",
"e  c #393A2B",
"r  c #373833",
"t  c #3C3B3B",
"y  c #412C25",
"u  c #442F28",
"i  c #45322B",
"p  c #4C352D",
"a  c #52392F",
"s  c #473934",
"d  c #433C34",
"f  c #4C3932",
"g  c #553B32",
"h  c #5A3E34",
"j  c #174119",
"k  c #194419",
"l  c #1E4B1E",
"z  c #274F28",
"x  c #3D472A",
"c  c #235523",
"v  c #265D27",
"b  c #3C4437",
"n  c #29652B",
"m  c #2F6F32",
"M  c #306F33",
"N  c #327D34",
"B  c #414C2B",
"V  c #4E5B2F",
"C  c #484037",
"Z  c #4D4239",
"A  c #5E4035",
"S  c #554A3D",
"D  c #485238",
"F  c #624337",
"G  c #65463A",
"H  c #69473B",
"J  c #6C4A3E",
"K  c #714E3F",
"L  c #586939",
"P  c #5E7436",
"I  c #66793D",
"U  c #444443",
"Y  c #4A4B46",
"T  c #594E40",
"R  c #4C504C",
"E  c #595648",
"W  c #575654",
"Q  c #6C4C40",
"!  c #724E41",
"~  c #65594A",
"^  c #765143",
"/  c #795344",
"(  c #516342",
")  c #66694D",
"_  c #6E6251",
"`  c #65615E",
"'  c #716353",
"]  c #796B5A",
"[  c #6D7E50",
"{  c #666564",
"}  c #6B6B6B",
"|  c #766C65",
" . c #6C7260",
".. c #747968",
"X. c #787573",
"o. c #7D7C7C",
"O. c #887666",
"+. c #877B77",
"@. c #368539",
"#. c #398B3A",
"$. c #3B923D",
"%. c #76953F",
"&. c #419D45",
"*. c #6C8246",
"=. c #718943",
"-. c #758D4D",
";. c #799745",
":. c #7B9A45",
">. c #7D9C48",
",. c #6A8354",
"<. c #44A348",
"1. c #49AE4D",
"2. c #4AB14E",
"3. c #7A846A",
"4. c #7D8074",
"5. c #849D46",
"6. c #809F4A",
"7. c #849959",
"8. c #82A445",
"9. c #89AA49",
"0. c #8CB14D",
"q. c #92B94D",
"w. c #88A455",
"e. c #97BC57",
"r. c #99BE57",
"t. c #92B358",
"y. c #97BC59",
"u. c #99BE59",
"i. c #8F806A",
"p. c #8E9E6E",
"a. c #848678",
"s. c #998875",
"d. c #899475",
"f. c #959A7B",
"g. c #A9967E",
"h. c #8CA36A",
"j. c #9BBC64",
"k. c #9BB868",
"l. c #99AF73",
"z. c #97A878",
"x. c #A4BD77",
"c. c #97C14D",
"v. c #9CC357",
"b. c #9FC956",
"n. c #9CC15A",
"m. c #9FC959",
"M. c #A0C757",
"N. c #A2CC56",
"B. c #A1C659",
"V. c #A5CA5A",
"C. c #AACD5A",
"Z. c #A5D256",
"A. c #A6D656",
"S. c #AAD457",
"D. c #AAD956",
"F. c #ACD259",
"G. c #B1D45A",
"H. c #B4DA5A",
"J. c #9EC062",
"K. c #A3C565",
"L. c #A9CC67",
"P. c #A4C46D",
"I. c #B2D26E",
"U. c #AAC778",
"Y. c #B4D377",
"T. c #1A71B4",
"R. c #588FB8",
"E. c #1C96F0",
"W. c #2D9BEC",
"Q. c #76C0F5",
"!. c #848484",
"~. c gray54",
"^. c #8E9188",
"/. c #959494",
"(. c #9B9B9B",
"). c #B59E84",
"_. c #9CA68A",
"`. c #BCA58B",
"'. c #A7B687",
"]. c #B1AE90",
"[. c #9CB1BA",
"{. c #A4A3A3",
"}. c #ABABAA",
"|. c #B2B6A7",
" X c #B9B8B8",
".X c #C7AE92",
"XX c #D5BC9E",
"oX c #D9BFA1",
"OX c #ADC483",
"+X c #AFC885",
"@X c #B2CA88",
"#X c #B9D485",
"$X c #B8CA96",
"%X c #BED398",
"&X c #BCC8A7",
"*X c #BFC5B9",
"=X c #C1D792",
"-X c #D9CCAC",
";X c #C7D7A9",
":X c #CED9BD",
">X c #E5C9AA",
",X c #EED2B2",
"<X c #F1D6B5",
"1X c #F2DBB7",
"2X c #F4DDBB",
"3X c #FBDEBB",
"4X c #CFE0B2",
"5X c #FDE2BE",
"6X c #9FC1D3",
"7X c #B3C8CE",
"8X c #82C2EF",
"9X c #C8C8C7",
"0X c #D7DCCB",
"qX c #D9DAD7",
"wX c #E4DACC",
"eX c #F8E3C6",
"rX c #E7EEDD",
"tX c #EBEBEB",
"yX c #FEF1E2",
"uX c #F6F6F5",
/* pixels */
"=.e.u.e.n.n.y.e.u.u.e.y.C.v.Z.v.e.e.e.h.d.;X9X_.d.d.d.|.:X'.d.k.n.e.e.v.e.n.n.y.y.y.y.e.r.C.M.Z.v.:.",
"=.e.n.u.n.n.B.M.e.e.v.v.V.D.A.S.M.e.P.E 9 }.tX{ 7 7 7 {.uXX.7 p.Y.J.j.K.j.n.n.B.m.y.y.v.r.C.S.D.F.8.",
"=.e.v.e.V.F.B.H.N.N.F.n.u.Z.Z.V.v.z._.C - o.{.Y = = - X.{.W =  ._._.f.f.d.&XY.m.H.N.Z.S.u.e.Z.Z.V.:.",
"5.F.Z.v.e.B.Z.N.A.A.v.N.n.u.v.v.K.( 9 p h 0 9 p A G G r 9 f G i 9 9 9 9 9 /.@XA.N.Z.A.v.N.u.v.v.v.;.",
"=.S.A.v.N.e.N.N.b.b.Z.Z.n.u.C.L.z.d = g J 4 = a K ^ ^ y = a ^ u = & = = % { /.+XK.N.v.Z.V.v.u.C.F.;.",
"=.v.v.v.v.e.e.v.b.v.b.M.G.C.I.L w f h K ! G h J ^ / ^ K H K ^ K H H H H J p 9 a.k.b.v.N.V.S.N.D.B.;.",
"=.n.e.e.y.u.e.e.n.n.n.l.'.'._.t = g K ^ / ! ! ^ / / / / / ^ ^ ^ ^ / / J F f r ~.x.v.v.e.e.C.N.v.u.;.",
"=.n.n.u.e.v.V.V.m.H.K.E r r w g G K ^ ^ / ^ ^ ^ ^ / / ^ / K K J J ^ / q % X.7XqX#XV.H.v.N.e.e.n.u.6.",
"=.e.n.G.e.Z.H.v.e.B.l.e + @ % A / / / ! ^ ^ ^ / / / / ^ ^ ! J K ! ! / y @ | oXqX+Xe.b.A.C.u.n.e.u.;.",
"=.v.C.N.b.N.N.V.V.V w g h F G J ! ^ ^ ! ! J ! ! / / / ! Q ^ / ^ ^ / / J G s r ^.U.V.e.Z.e.u.n.v.B.;.",
"=.u.C.H.N.N.D.F.n.*.e g F K K K Q ! ^ ! J J K ! / ^ ^ K H H G K ! ^ / ^ / q . ..L.u.n.e.v.M.V.N.C.5.",
"=.n.e.B.N.v.N.e.u.t.h.e % A K K ^ ! ! ! ^ / / / / ^ K K K 4 % p ! / / / / y . ..k.e.u.e.C.Z.N.b.Z.:.",
"=.u.n.e.e.v.v.e.u.u.x.Y 7 s A K ^ ! Q ! ! J H ! ! G h h h 0 4 u g F G J ^ q O [ k.e.v.e.e.v.e.e.n.:.",
"=.B.N.V.b.Z.M.e.V.N.Y.&X}.C % A / ^ ^ ^ H q & h / 0 % % & ] ].T - * & p / q . ,.j.C.N.N.n.u.v.Z.v.0.",
"=.V.F.S.A.b.V.v.S.Z.Y.:X9Xt O A ^ / ^ H h 8 - g H 0 7 6 6 s.2X_ O O * i Q p 4 7.n.F.V.A.N.C.v.Z.Z.8.",
"=.u.V.N.v.Z.F.e.B.Z.I.) r f a G ! ^ ! 4 & O.`.f & !. XR.T.[.2X_ . {  X` ; ) w.u.e.N.N.Z.N.v.y.v.S.8.",
"=.n.e.e.e.e.e.e.y.n.k.B * f F G H ^ J = . g.1X~ = }.uXQ.W.6XeX_ O !.tX~.7 ,.u.u.y.u.v.e.e.e.e.v.v.:.",
"=.e.u.e.n.n.e.e.u.u.u.w.f.d & g Q ^ H & . g.3XXX`.wXuXQ.E.6XeX_ O ~.tXqX_.k.n.e.y.u.u.e.r.C.M.V.n.:.",
"=.e.n.u.n.u.B.N.y.u.v.n.$XU * s F F h % o g.1X3X5XyXuX8XW.6X2X] $ a.qXuX;XK.v.V.N.e.e.v.e.V.S.A.D.8.",
"=.v.v.u.V.F.B.H.N.N.F.e.&X:X{.C & = % . . s.,X3X3XeXeXqX9X0X2XXX`.| R (.@XL.F.B.H.N.A.S.v.e.A.N.Z.:.",
"5.H.N.v.e.M.Z.N.Z.Z.v.N.%XrX0XU .       o i.XX,X3X3X3X5X5X5X3X<X,X] @ a.OXn.v.Z.B.Z.A.b.N.u.v.v.n.;.",
"=.S.A.b.b.e.N.N.N.b.Z.V.+X` W ^.(.9   2 c e d ).,X3X5X5X5X5X5Xs.A O.{.9X%XL.e.N.N.N.v.Z.V.r.e.G.G.;.",
"=.e.v.v.b.e.e.v.v.v.b.N.Y.x 7  XqXU   v N > X i.XX>X<X<X<X1X<X_ O R.tXuX4XL.e.y.e.b.v.N.V.F.N.S.B.;.",
"=.n.e.e.u.n.e.e.n.v.e.e.I.h.^.{ R z z #.&.@.M b d Z Z Z C C C V M ( R }.;XP.u.e.e.n.v.e.r.C.N.v.u.;.",
"=.n.u.u.e.v.F.V.B.H.b.N.n.U.*Xb X c @.&.2.2.<.2               v <.z X O.-XC.n.S.V.V.H.v.N.e.e.u.u.>.",
"=.e.B.G.r.V.H.v.e.v.A.V.e.K.&Xt X c @.&.2.2.2.@.M M m m m ,   # 1 #   R.;XP.S.H.e.e.v.D.V.u.n.e.u.>.",
"=.n.S.V.b.N.N.V.V.e.b.e.e.u.;XC X c @.&.2.1.2.1.2.1.1.1.1.k X         o.0X%XZ.M.F.M.v.N.e.u.v.v.B.;.",
"=.y.C.H.N.N.D.F.n.n.e.v.N.S.$Xt   c N #.$.$.$.<.2.2.2.2.2.,.' ' ' _ ' _ E z.L.D.C.n.n.e.e.C.V.N.V.5.",
"=.u.u.v.N.v.b.e.e.u.e.C.Z.b.OXb X c @.N N N N &.2.2.2.2.2.h.`.`.).).`.T + 3.P.v.e.e.e.e.C.N.N.b.Z.:.",
"=.u.n.e.e.v.v.e.e.v.v.e.v.v.J.7.3.b , > , , 1 m $.$.$.$.$.z.>X-X>X.X`.S O ..j.v.e.e.v.v.e.v.v.e.n.>.",
"=.M.N.V.N.Z.v.v.V.N.b.n.n.v.Z.K.=Xb X       X c N N N N N '.<X1X3XXX`.T + ..L.n.v.F.N.b.v.u.v.Z.n.0.",
"=.V.F.Z.Z.b.C.v.S.Z.Z.Z.C.y.Z.A.$Xr   2 l #   # 1 1 1 , 1 f.1X3X5XXX.XT O 3.P.C.e.F.N.A.Z.C.e.Z.A.8.",
"=.n.N.N.v.Z.C.e.v.Z.N.N.v.u.e.A.@Xb X v @.>     X X     X i.5X5X5X-X.XS O ,.L.C.e.M.V.Z.b.v.e.v.A.8.",
"=.n.y.y.e.u.e.e.u.v.e.e.e.e.e.v.+Xr   v #.v l l l l l l l E _ ' ' E S _ X.l.n.e.e.u.v.e.e.e.e.e.b.:.",
"=.e.u.e.n.n.e.e.u.u.e.e.C.N.V.v.U.b   n #.#.#.#.#.#.#.#.#.2 O O O O . o.$XP.n.e.e.u.u.e.e.F.N.N.n.:.",
"=.y.n.u.n.u.N.C.e.e.N.v.B.D.A.S.U.e   , j j k k k k k j 2 #           !.OXK.n.V.N.y.e.N.v.V.D.A.F.8.",
"=.v.v.e.V.S.v.H.N.Z.S.v.e.N.Z.N.P.x   X X X X X X X X X X             !.OXC.F.M.H.N.Z.F.u.e.Z.V.Z.;.",
"5.F.Z.b.e.M.Z.N.Z.Z.b.V.B.u.v.v.K.p.} 7 X & 4 4 4 4 4 +   % 4 4 4 +   !.OXu.v.A.M.Z.N.b.C.n.e.v.n.:.",
"=.F.A.v.N.e.N.N.N.b.N.V.u.u.C.G.n.@X:XU   u G G F G G =   q F G G ; . +.U.M.y.b.N.N.v.Z.V.n.v.F.F.;.",
"=.e.v.v.v.e.e.e.v.v.b.B.H.N.S.v.e.U.0XU   u J J J J H -   q G J Q :   o.x.n.y.u.v.v.v.N.V.S.N.S.n.;.",
"=.n.e.e.e.u.e.e.v.v.e.e.V.N.v.e.y.%X0XY   u Q J H J H =   q G Q J :   o.x.u.u.e.e.v.v.e.e.N.N.v.y.;.",
"=.n.u.r.e.v.S.C.M.H.N.V.e.e.v.e.J.p.4.d - g H J J J Q =   q H Q ! : . !.OXy.n.S.V.M.G.N.V.r.e.e.n.>.",
"=.e.B.H.n.V.H.e.e.v.D.V.e.n.e.e.u.D * u g G H Q J H H =   q G G H :   !.#Xu.Z.H.r.e.v.D.V.u.n.e.n.;.",
"=.u.S.V.b.N.b.F.V.e.N.e.u.u.B.M.u.5   y F H H H ! ' | 8   q Q / O.0 . !.+Xm.Z.b.F.V.e.N.e.n.u.M.n.;.",
"=.u.V.H.N.N.D.Z.n.n.e.v.V.Z.N.V.n.5   q A H Q Q Q +./.0   y J +./.U . o.=XC.Z.D.M.n.n.v.v.V.V.N.C.5.",
"=.n.e.B.N.v.b.e.e.u.e.M.N.N.v.N.v.e . u A F F G H +.(.` t r y | (.{ t } 4.j.v.v.e.e.y.e.C.N.N.b.Z.:.",
"=.u.u.u.e.v.v.e.e.v.v.y.v.e.v.e.J.x % p F F G F Q +.{.(./.d + ` {.(.(.W 9 -.n.v.e.e.v.e.e.v.v.e.v.8.",
"=.B.V.S.N.Z.v.v.F.N.b.n.n.v.Z.v.C.x + : y y q y y W } } } 9 X t { } } r X =.Z.v.v.F.Z.b.n.e.v.Z.v.9.",
"=.B.F.A.Z.M.C.n.F.Z.F.Z.F.e.Z.Z.b.L 3 < 3 V 5 V I %.I I L B B P [ L L B V 9.b.F.v.F.V.Z.Z.C.n.Z.A.8.",
"=.u.N.N.n.A.C.u.v.Z.N.N.v.e.e.A.b.9.;.%.%.9.9.9.q.c.q.q.9.5.8.q.c.w.>.9.0.c.A.N.e.v.Z.Z.N.e.e.v.A.8."
};
