/* XPM */
static char *result[] = {
/* columns rows colors chars-per-pixel */
"50 50 62 1 ",
"  c #000606",
". c #000608",
"X c #000C0D",
"o c #001213",
"O c #151414",
"+ c #181717",
"@ c #012325",
"# c #002C2E",
"$ c #172728",
"% c #17292A",
"& c #19292A",
"* c #123335",
"= c #2E2D2D",
"- c #312E2E",
"; c #333232",
": c #18767B",
"> c #718943",
", c #799745",
"< c #7B9A45",
"1 c #7F9E4A",
"2 c #849D46",
"3 c #82A445",
"4 c #8FAE46",
"5 c #97BC57",
"6 c #99BE57",
"7 c #97BD59",
"8 c #99BE59",
"9 c #9CC357",
"0 c #9FC956",
"q c #9CC15A",
"w c #A0C757",
"e c #A2CC56",
"r c #A1C659",
"t c #A5CA59",
"y c #A9CE5A",
"u c #A5D256",
"i c #AAD457",
"p c #A7D855",
"a c #AAD956",
"s c #ACD259",
"d c #AED859",
"f c #B1D45A",
"g c #B4DA5A",
"h c #17878D",
"j c #1B868C",
"k c #17888E",
"l c #1C898E",
"z c #158A90",
"x c #188F95",
"c c #199197",
"v c #13949A",
"b c #11989F",
"n c #25979C",
"m c #25989D",
"M c #25A5AB",
"N c #28A3A9",
"B c #23AEB4",
"V c #21B0B6",
"C c #23B3B9",
"Z c #2DB7BE",
"A c #37B2B7",
"S c #42B0B5",
/* pixels */
">585qq758855y9e955588q878855ry0e65585rq558855sweq<",
">5q8qqrw5599yiput588qqqe57998fupi55q88qrw5595ypps3",
">595ysrgeei95uue9589qfesf0py59pee5597ysrgeuiq5uue<",
"2su98wuwiu9tqq99rfee5qe0eae9r5995syu98wuruu9wq99q<",
">up905eeeeeeq5ys5tae099u9u9pr88fqqpu905eee0ueq7ys<",
">999055999ees0gq5595995990weseis555w9055909etsedr<",
">q557q55q955yu9558855q755q55rie5758559855r955ye97,",
">qq855ttwg9e55qqq88q559sqfew9558q8q8859yrrf9e55982",
">5qf5ugr5wpy5q75757fe9gy59eiq885885rs5ugq5eat8q58,",
">qye0eeer5e55qqq57tte9u0y8ew598t55rytweeer5e588rq<",
">8sgeeasrq95wyeeq5rgi9pdw8q65iwer65fgeeayrq55eeet2",
">85re9e5555yeu0e8858u009587ryuetr785we905588yueee1",
">888599559959559r68;OO++OO;59955997q859955955955q1",
">rteeuw6ee0q8909tqr-OOO+OO;9q5e9ttrweee96yu9q89u94",
">tsiuetqsuuey8uu0;-suurrrdu=;q0ue5tfpuetqsuuey9uu3",
">8ee9uy5rueu98qu0=;uwei98eu&%q5ep88ee9uy5wuee989p3",
">q555955599555q;=q558595589An$;8w885658558q955550<",
">585qq558855y00=;7588r755878V@%065587rq558556ywtq<",
">8q8q8rt559qt;=uw58q5q8y959wqCn%-5567q8tw55w9tpud3",
">998tsrfeepq5OOeq5598fess0ue59BXO95w5ysrgeuiq5uue<",
"2su959ueuu9eqOOqqgee5qeeea9et89oOsuu999urup9eq89q<",
">iu0e5eee0eeq;=f5wa0099u9u9ur5q*-5uu905eee9ue67fs<",
">999055909e;=0sq5599055990wwfept5;;99055999etseiq,",
">q558855q95OOu955q855q755r55ree55OO555855q956ye97<",
">76q59ytrg0+O588q88q580sqfuwq558SX+8889yttg0e55q81",
">5qf9eg959u+O987855fe9gt55uiqqq5NX+rf8ug859at7q58<",
">qst0eeyt5eOO7qr55tye9u0i8e9Zckj:.Oft9eeet5e588qr,",
">7ygeeayqq7OOueeq5rgs0udr8869czl: Oygeuayqq59tuet2",
">q8qe905575OOe0e8q8vzzzzkkbqee0eNXO59e9e5585eee0u<",
">8q85995599;=958988vkkkkkhv5q95Vn&;r5599559579q591",
">rweeu99sew8q=*qsvveeue8eeuvb9u#$rwtyee99eeeqq9u94",
">tsiuet9suuuyOou0zksuurtwdukkqqoO5tspuwyrsuuyequu3",
">q009uy5ruee9+XVejku9epq5yehj8BXO88ee9ue7reue5q9a3",
">q5q585559555;%mMkx55555589xlMm%;8855855589555559<",
">575qq578858yeu$@M888qq75755M@$eq5587qr558556yeeq<",
">5q7qqre5799rip;%nB85rqy959Bn$;ps55q8q8rt55e9tpps3",
">995tsegeuir7eue9%XooooooooX&9pe99595yiegeuiq5eee<",
"2su05wu9uu9er899r;O++++++++O;q896ysu959uwpe9tr69q,",
">uu9e5eee0eeq5yf59a0e59u9u9ur8rgw6iue05eee9ptq8fs<",
">999955999erfed8559999559990sept555999555990tfeiq,",
">q557q559w55te95788558555w55qu0555q558855wr55ee98,",
">q8q55sywfey5585q88r67efrsitq558q88qq5qstwiet55581",
">5rf9efq59pt5q55655fr9gt55epqqq5555ws9pf85wat8q58,",
">qse0eeit5e5q8rw57tyewees8095q8t55qfe9eesr5e589rr,",
">8tgeeaeqq5qtuetr58fg9pir8869d0et55ygeeaeqq59eite3",
">87re9055q5wee9e9q88e999555ree9er888we998575tee9u<",
">788509559979595988q59e55595q995998q559955995959q1",
">ttyeu95ie0qq9u9yqtu0ue5yeu9q5e0trrteuu95ie0qq9e94",
">rsuuesqyuuus8uu05suuettwiuuir9uu5tsuu0y8feuuyquu3",
">q0e9ue7riee985ue89u9eiq5yeu9850u88ue9pe5riee589p3"
};
