/* XPM */
static char *result[] = {
/* columns rows colors chars-per-pixel */
"50 50 49 1 ",
"  c #000000",
". c #0B0B0B",
"X c #131313",
"o c #1B1B1B",
"O c #242424",
"+ c #2B2B2B",
"@ c #323232",
"# c #3C3C3C",
"$ c #444444",
"% c #4C4C4C",
"& c #545454",
"* c #5D5D5D",
"= c #636363",
"- c #6A6A6A",
"; c #757575",
": c #7D7D7D",
"> c #718943",
", c #799745",
"< c #7B9A45",
"1 c #7F9E4A",
"2 c #849D46",
"3 c #82A445",
"4 c #8FAE46",
"5 c #97BC57",
"6 c #99BE57",
"7 c #97BD59",
"8 c #99BE59",
"9 c #9CC357",
"0 c #9FC956",
"q c #9CC15A",
"w c #A0C757",
"e c #A2CC56",
"r c #A2C659",
"t c #A5CA59",
"y c #A9CE5A",
"u c #A5D256",
"i c #AAD457",
"p c #A7D855",
"a c #AAD956",
"s c #ACD259",
"d c #AED859",
"f c #B1D45A",
"g c #B4DA5A",
"h c #848484",
"j c #8C8C8C",
"k c #8F8F90",
"l c #959595",
"z c #9B9B9B",
"x c #A0A0A0",
/* pixels */
">585qq77q855y9u955588r855855ry00555q5qq758855s9uq<",
">5q8qqrw5599tdpur5888q8y85998fppy55q8q8rw5595yips3",
">595ysrgweir5uue95898gwss9py59pew9595ystgwuiq5uuu1",
"2su95ruwup9wqq99rd0y89eeyp00r8995syu999ueuu9wq99q,",
">pp905wuewuuq8ys5ede095p9u9pr8qf9qpu095eee0py55ss,",
">999055999ews0fr559q0559900wswis558w9055909eti0d9,",
">q558q55q955yu95588559855955rpw5558558855qq55se98,",
">q8855eteg9w55888888559sqfy9955q7qq8q59yrtf9w55q82",
">8rs9eg95wpy9q75855fw9gy59zd9885885rf5ugq50py7q58<",
">8ye0eeet5e55qqq55ryu9uwllxx588t55qyywuwyrq0588r9,",
">8sgeeas9q95ru0yq5rg*=liz#@&9swyr58ff0upy9q99reey2",
">85re0w5555y0u00885lO+&--@.o%%;ew788wu905585yue0y<",
">8q8599559959579988h.O$#h&X.  oj9l:q789955955955q1",
">rrewuw5ye0q89u9yrj&.o++%+. . Ohtr;&%zuq5y00q79u94",
">tfppwyqsuueyqu0k:-O ..     o++#=h=$+-0yqiuuyy8pu3",
">8tw9uy5rueu979:*#.          .  XX.oo@*y5wuue989p1",
">q555555799555zO.                  .XoOz58q9555591",
">5879q557755yzy@.                   .$@-58755y9u9,",
">5q7qqry550qz=*+Oo.                 .%$:e5595ypup3",
">998tsrgwus9l$&o..                   O+-gwup95uuy<",
"2su95wu0pu9eq$X                        Xluu9y9q9q,",
">pp005wu00eyq$o                        o;hwuy58ss,",
">8999559090epl*.                       *6x9wri0sq,",
">8558q55q955y0=.                       +5r959ye98,",
">88859yerf0e5=.                        %ttf0w558q1",
">5rf6yg959lsh+ oX.                    oh850py8q58,",
">qstwewyr5e5h.  ..                    .&-w50588rr,",
">8ygeepiqq95wOo                        .*8q95yu0y2",
">q79e005575yu;*                        .+585yu00u<",
">7q559955995q&+                        X@k95599591",
">rtyeu95yer8q&X                     .. o:yu9979uq4",
">tspuwy9supuy-o                     XOo$zpypuy9uu1",
">q009uy59uee98@..                   X+##;9ue0989p3",
">q7q7q557q5555;=.                  oX%-j5899555591",
">5759q558855swe9;.OX              .oo*:555558s0uq<",
">7q7qqry5509wduujXoX              X$+=5yy55w6rpps3",
">995ys9gyupq5eue9&#.             +;=%lirgwuir5yyu<",
"2su059u0uu9er899qf:oooo.        X-sh959uwuu9eq599,",
">up9e50e00uy95ss5w-+$@*$#X+@$O %%zuu005eee0uyq5ss,",
">995w55999wtfwiq55h*@=59zh:0f;&thh5999559990tieiq,",
">q8558559955ee9588zz:h855r55qu0555q557q559w55ee97,",
">q8q59iywgwe5588888q88wfqsue9558qq88q59strfwy559q1",
">5wfqyfq59py5q55555fe9ge55yl-qq5555rs9uf859pt7q5q,",
">8se000it5e5q8rr55yyewywsqx*::8t55qse0u0it5e588r9,",
">8ygeepyqq59tuwyr5qfd0pirq859&0ut55ygeuayqq59yuee2",
">q5qe9055q5ree0e9858w909555reu9w988890995579tee9u<",
">8q7599559979559987q59055595qq95q98q55995595799591",
">tryeu99ue0q89u9sqeyeue5eyu9q5e9yrrtyeu99ue0q89u04",
">rspu0yqsuuus8eu05suuurtriuupr9pu5rspu0y8syuuy9uu1",
">qu09uy59uy0979ue79u9eiq5iwu958wp5qe09py5rue0959p3"
};
