/* XPM */
static char *result[] = {
/* columns rows colors chars-per-pixel */
"50 50 27 1 ",
"  c #6F8745",
". c #718945",
"X c #799747",
"o c #7C9A47",
"O c #7D9C4A",
"+ c #859B47",
"@ c #809D48",
"# c #80A346",
"$ c #84A148",
"% c #8EAC48",
"& c #96BB58",
"* c #99BE59",
"= c #9CC457",
"- c #9FC957",
"; c #9CC259",
": c #9FC858",
"> c #A1CD57",
", c #A1C659",
"< c #A4CB59",
"1 c #A9CD5A",
"2 c #A4D256",
"3 c #A8D657",
"4 c #A9D957",
"5 c #A7D158",
"6 c #ACD359",
"7 c #B2D55A",
"8 c #B3DA5A",
/* pixels */
" &&&;;&&*&&&1:2**&&&&:&***&&,1::*&&*&;;&&&&&*1:2=X",
".&;&;*;,&&;;,325,&**&;*,*&*:*622<*&;&;*,:&&;*<625@",
".*;&,6,8,>3;&22>;**;*7<66:3,&=4>-&&;&15,7:<3*&222o",
"+5>=*:5,22=>;*=*;6->&:--<2:::;;;&112;*,2<52;<;&;;X",
".22=:&::-:-<;&11&,3>-&&2=2=2;&*7;;32==&>--:2<*&16X",
".;=;:&&;==-<5<6;&*=*-*&;&-=:1<31&&*;=:&&===-<5>6;X",
" ;&&&&&&;=&&1<:&&**&&*&&&:&&:5-&&&&&&&*&&;;&*1>=&X",
" ;*;&&<<,7=<&&&*****&&:1*61:;&&***;**&*1<,6::&&&*@",
" &;6&>8;&:21&;&&&&&1:=81&*>3***&&&&,6*27*&:4<&;&*O",
" *1<-><<,&>*&;;;&&<1-=2,1*::&**,&&*1<:>:<:;<&*&:;X",
".*18>-45;;**,<->;&,73=24,****6,1,**18>>31;;&*<5-1@",
".*&,>;<&&**<2>--*&&&>::=&*&,<>:>,&*&;<=:&&&&1<--,X",
".&;*&;;&&*&&=&&;;***&&=&&&;&==&&;*&;&&=*&&;&&;&&;O",
" ,,<->;*<--;*=>;1;,1:2>&>->;;&-=<,:,>->;&<>=;&=<:%",
" <132:<;622>1*5>,*112>,,:62-5::2<*1532:1;522>1*25#",
" *,<=25&:<>>=&;>>&;2=-6=*<><:&&-2*&>-:1<&:2>>;&;2O",
".*&*&*&&&;&&&&&;**&*&&*&&&;&&&&&=**&&&*&&&;*&&&&=O",
" &*&**&&&&&&1:-;*&*&&:&&&*&&;<--*&&&&;;&&*&&&1;>=X",
" *;&;*:<&&:;<322,&&**;*1*&;:;6221&&****,<&&:;<223$",
".*;*,6<7<<2;&<5<***;*7,16:21&=4>:*&=&16,7:-6;&25<o",
"+65=&:2:22=<;*;*=7>2&;>>>2::,*=*&152;;=5:52=<;*;;X",
".52=-&---=-2;&16&,2--*&2=>=2;*;7:&32==&---=5<&*55o",
" ;=;=&&;=;-<3:6*&&=*:*&=*:::1<21&&;=;=&&;==-<5:3;X",
" &&&&&&&;=&&<<:&&&&&&*&&&:&&,>>&&&&&&&*&&=;&&1<=&X",
" ;****1,;7=-&&&*;***&&:6*7<>=&&******&;5,,6:<&&&*O",
" &,6*<8;&;41&;&&&&&1>=7<&&>3***&&&&,7*27;&:4<&;&*o",
" ;<<:-<1<&-&&&;:&&<1>=>>1*,:&**,&&;6<:<:1,&-&&;;;O",
" &18--45;;;&<5<<,&,76=26=****5:1<&*17,<41;;&;<5-,@",
" *&=5;=&&&&<>-=-&***>::=&&&;1>--:&&&=-=:&&&&1->=1o",
" *;&&==&&;;&=&;;;&**&*=&&&=&=*&*=;&*&&=;&&;&&;;&;@",
" ,,1-2=;1--;;;<;1,<,>>>&,<2=;&>:<,,,>>>;;1-:;&=2;%",
" ,522:<;352-5&5<:*162<,,,32<5==2<&<622:1*322><;22O",
".;::;<<&:<->;*;>=*=5;=5;&<-5=*&:2;&-::1<&:<--;&;2#",
".;&*&*&&&;&&&&&;;;*&&&**&*;&&&&*=&;&&&&&&&;&;&&&;o",
" &*&;;&&*&&*5:>=&&&&;;**&*&&,1::*&&&&;;&&&&&*5=>;o",
" **&;*:<&&==,425:&&;&=*<;&;=*324<&*;&;*,<&&:;<243$",
".;=&,3:7<>5:&<5-;&;=*7:53:4<&;2<:**:&16=7<25*&>><X",
"@65=*:2:25;<;*;==7->&;--:2=-:**:*65>=&=2:2>=1;&=;X",
".52=:&=:-=<<*&56&=4=<;;5=5=2:*;8;&52::&---=21*&61o",
" *;;=&&;==:<6<3*&&=;=&&&;===6,2,&&*;*=&&&:=-,6>6;X",
" ;&&&&&&==&&<-=&&**&&**&&:&&;5=&&&*&&&*&&:=&&<>*&X",
" ***&;11:7-<&&&&*&*;&*<6;65<;&&******&;5,,6:<&&*;O",
" &;7;>7;&;2<&;&&&&*1,;8,&&-4;*;&&&&,7*27*&:3<&;&&X",
" ;6>---2<&<&**;:&&11,:-<1*=;&;&<&&;5<:>:5,*>&*&,:X",
" *17>-41;=&;<5:<:&;77=43;***=5:<<&&18>>3<;;&*<<>2O",
".**;-=-&&&&:<<=-&;&*-==;&*&,>-::,**&=-==&&&*1>-:>o",
".***&=;&&;;&;&&;=&&;&;:&&&;&;;;&**&*&&==&&=&&**&=O",
" ,,1->;;5--&;;2;1;<5->-&<<2*;&-=,,,<1>>=*2-:;*:>-%",
" ,622:<;15525*5>=;555>,,:65>2::55*<552:1&55221;>2O",
".*-<=5<*:5--;*&5-&=2=:6=&5-5=&&:2*&1:=51&:1--;&;4O"
};
