/* XPM */
static char *result[] = {
/* columns rows colors chars-per-pixel */
"50 50 173 2 ",
"   c #002B00",
".  c #003500",
"X  c #0C3601",
"o  c #003A00",
"O  c #103801",
"+  c #1D3E03",
"@  c #004300",
"#  c #014C00",
"$  c #0B4901",
"%  c #074308",
"&  c #0E450E",
"*  c #0B4C0B",
"=  c #104701",
"-  c #124A02",
";  c #1A4C03",
":  c #015400",
">  c #0D5201",
",  c #015C00",
"<  c #0C5B01",
"1  c #075508",
"2  c #0A530A",
"3  c #0B5D0B",
"4  c #145302",
"5  c #195003",
"6  c #125902",
"7  c #195D03",
"8  c #104010",
"9  c #145414",
"0  c #135913",
"q  c #195519",
"w  c #195919",
"e  c #224E05",
"r  c #245405",
"t  c #2B5306",
"y  c #245E05",
"u  c #2B5B06",
"i  c #2F5F08",
"p  c #325508",
"a  c #335D09",
"s  c #006300",
"d  c #0D6401",
"f  c #006B00",
"g  c #0E6E01",
"h  c #0C620C",
"j  c #007400",
"k  c #007D00",
"l  c #146214",
"z  c #186218",
"x  c #226504",
"c  c #2A6306",
"v  c #2D6C07",
"b  c #336409",
"n  c #3A650C",
"m  c #356B0A",
"M  c #3B6C0C",
"N  c #247305",
"B  c #2E7307",
"V  c #227D04",
"C  c #3D730C",
"Z  c #367C0A",
"A  c #3D7D0C",
"S  c #274527",
"D  c #244C24",
"F  c #225122",
"G  c #215C21",
"H  c #2A542A",
"J  c #374F37",
"K  c #345734",
"L  c #365D36",
"P  c #2B642B",
"I  c #356435",
"U  c #336A33",
"Y  c #3A663A",
"T  c #3B6C3B",
"R  c #3A713A",
"E  c #417D0D",
"W  c #446B10",
"Q  c #497E11",
"!  c #445C44",
"~  c #456245",
"^  c #456A45",
"/  c #4A654A",
"(  c #4D6B4D",
")  c #437243",
"_  c #546554",
"`  c #586B58",
"'  c #577157",
"]  c #5C7A5C",
"[  c #637363",
"{  c #647C64",
"}  c #6E726E",
"|  c #747D74",
" . c #008300",
".. c #008A00",
"X. c #0E8D01",
"o. c #1A8402",
"O. c #138802",
"+. c #188A02",
"@. c #009000",
"#. c #298A06",
"$. c #35870A",
"%. c #3F830D",
"&. c #3C8C0C",
"*. c #239505",
"=. c #369D0B",
"-. c #389E0B",
";. c #43840E",
":. c #45890E",
">. c #468510",
",. c #468B10",
"<. c #4A8D11",
"1. c #469310",
"2. c #4C9212",
"3. c #4C9912",
"4. c #539414",
"5. c #559C15",
"6. c #44A410",
"7. c #4DA913",
"8. c #56A617",
"9. c #58A717",
"0. c #56AB16",
"q. c #59AE17",
"w. c #5BAF18",
"e. c #5AB117",
"r. c #5DB319",
"t. c #64A61A",
"y. c #61B41A",
"u. c #69B11C",
"i. c #62B91A",
"p. c #718943",
"a. c #799745",
"s. c #7B9A45",
"d. c #7F9E4A",
"f. c #678467",
"g. c #6D846D",
"h. c #748474",
"j. c #748974",
"k. c #798779",
"l. c #849D46",
"z. c #82A445",
"x. c #8FAE46",
"c. c #97BC57",
"v. c #99BE57",
"b. c #97BD59",
"n. c #99BE59",
"m. c #9CC357",
"M. c #9FC956",
"N. c #9CC25A",
"B. c #A0C757",
"V. c #A2CC56",
"C. c #A1C659",
"Z. c #A5CA59",
"A. c #AACE5A",
"S. c #A5D256",
"D. c #A9D457",
"F. c #A7D855",
"G. c #AAD956",
"H. c #ACD259",
"J. c #B0D55A",
"K. c #B4DA5A",
"L. c #828482",
"P. c #838B83",
"I. c #8C8E8C",
"U. c #839383",
"Y. c #8F958F",
"T. c #959595",
"R. c #959995",
"E. c #9E9A9E",
"W. c #8DA08D",
"Q. c #9CA89C",
"!. c #A09DA0",
"~. c #A2A4A2",
"^. c #A8A3A8",
/* pixels */
"p.c.n.c.N.N.b.c.c.n.v.v.A.m.V.m.c.c.c.n.n.C.b.c.b.n.v.c.N.A.M.M.n.c.c.n.c.N.N.v.c.n.n.c.c.A.m.S.N.s.",
"p.c.N.n.N.N.B.B.c.v.m.m.Z.D.F.S.Z.c.n.n.n.N.n.A.n.b.m.m.N.J.F.F.H.c.c.N.n.N.n.Z.m.n.v.m.m.Z.D.G.H.z.",
"p.c.m.c.A.H.B.K.Z.V.D.m.v.S.S.V.m.c.c.R.N.| B.L !.m.G.!.D P F.V.| ^.b.N.b.A.H.C.K.B.S.D.N.c.S.S.V.s.",
"l.H.S.m.n.C.V.Z.S.F.m.Z.N.N.m.m.C.J.Z., 2 , , k @ Y / q j k l l s # 2 S m.c.B.S.Z.S.S.m.M.N.m.m.N.a.",
"p.D.F.m.M.c.B.V.B.V.V.S.n.n.A.H.c.{ #  . . . . . .j j k .. . . ..... .f ) P R.V.V.V.M.S.V.N.m.A.H.a.",
"p.m.m.m.M.c.v.m.B.m.V.B.J.B.Q.U # s  . . . .k k  . . . . .k  .f @ f ....k j % ! ~.M.M.M.C.H.M.J.B.a.",
"p.N.c.c.b.n.v.c.m.m.c.c.A.V.& k .... .s # # @ j  . .k  . . . .j j # # : k .. .* v.N.m.v.m.A.M.m.n.a.",
"p.N.n.n.v.m.B.Z.C.K.m.Z.c.P.: ..k , # , j j k k  .k  . . . . . . .k s , . k  .k z W.J.m.M.v.m.b.N.l.",
"p.v.N.H.m.S.K.N.v.m.G.Y.n.& k ..f .  . . . . . . . .k k  .k k  . . . ...# . k  . .: _ D.A.n.N.b.b.a.",
"p.N.A.V.M.V.B.V.Z.v.@ , h # j , @ s  . . .k  .k k  .O.*.=.-.*. .k  .k  .k : . , ..k G V.c.n.n.B.N.a.",
"p.n.H.K.B.V.G.H.U.P.j .. . .k f j  . .k  . . . .*.7.w.y.y.y.y.6. ... .k  . . .# o  .k : _ V.V.V.A.l.",
"p.n.b.B.S.m.M.H s s  . .k  . . . . . . . .k  .6.y.w.w.q.0.q.0.y.&.@ j ..k  . .k . : j @.: S.V.M.V.d.",
"p.n.N.n.c.m.m.# .. . . . .j k  . . . . . . .7.u.q.q.w.w.w.w.w.q.r.%.@  . . .k  .k . s ..s P.n.v.m.d.",
"p.C.Z.V.M.S.h.:  . . . .s 7 +... .k  .k  .6.y.0.q.w.w.w.w.w.w.w.q.y.1.o f  . . . .: @  .k @ ~.A.m.x.",
"p.A.A.D.F.M.I k  . ...s v i.y.0.0.6.6.7.q.r.q.w.w.w.w.w.w.w.w.w.e.q.r.1.. k  .k  .j o  . .k Y S.S.z.",
"p.n.V.Z.m.T.: ..k  .j $ 9.r.0.w.w.w.y.w.r.q.q.w.w.w.w.w.w.w.w.w.e.e.e.i.A : .. . . .  f  . ., m.F.d.",
"p.N.v.v.v.:  . .k ..# <.r.w.r.q.q.q.w.0.w.w.w.w.w.w.w.w.w.w.w.w.w.w.w.w.y.x f  . .s @ k  .j f.m.M.s.",
"p.v.b.b.N., ..k ..: c 9.r.q.q.w.w.w.w.w.w.w.w.w.w.w.w.w.w.w.w.w.w.w.w.0.r.4., .. .. . j  .k P V.m.s.",
"p.b.N.b.N.z  . .s 4 y.e.q.w.w.w.w.w.w.w.w.w.w.w.w.w.w.w.w.w.w.w.w.w.r.9.r.2.g  . .j ,   s k T F.H.z.",
"p.c.m.n.Z.P., ..1 4.q.w.w.w.w.w.w.w.w.w.w.w.w.w.w.w.w.w.w.w.w.w.w.w.w.w.e.5.s  . . ...: : k / S.S.s.",
"l.H.F.m.c.U  .j v i.0.r.w.w.w.w.w.w.w.w.w.r.w.w.w.w.w.w.w.w.w.w.w.w.w.q.r.<.,  .k  .k o j j ^ m.m.a.",
"p.D.F.M.8 f ..s v r.0.w.w.w.w.w.w.w.w.w.w.w.w.w.w.w.w.w.w.w.r.w.w.w.w.w.r.2.W O.k  .k : @ k 3 A.H.s.",
"p.c.m.m.& .. .f B y.w.w.w.w.w.w.w.w.w.w.w.w.w.w.w.w.w.w.w.w.w.w.w.w.w.w.e.r.W V  . . . .@ j k 9 N.a.",
"p.n.c.c.o  . .k < y.w.w.w.w.w.w.w.w.w.w.w.w.w.w.w.w.w.w.w.w.w.w.r.0.r.r.0.r.Q N  . . .k o @ @.s h.s.",
"p.N.n.I.: .. . ., >.r.q.q.r.w.w.w.w.w.w.w.w.w.w.w.w.w.w.w.w.w.w.w.w.w.w.0.y.A B  . .k .., : ..s P.d.",
"p.v.C.L j  . .k $ 8.e.e.w.q.w.w.w.w.w.w.w.w.w.w.w.w.w.w.w.w.w.w.w.w.w.w.0.y.B Z #. .o.$.> k ..: T.a.",
"p.n.H.k.f .. .j 7 r.q.w.w.w.w.w.w.w.w.w.w.w.w.w.w.w.w.w.w.w.w.w.w.w.w.r.e.y.u A <.,.2.p d  . .# L.a.",
"p.b.A.K.,  . .j 7 y.q.q.w.w.w.w.w.w.w.w.w.w.w.w.w.w.w.w.w.w.w.w.w.w.w.0.y.M b ,.:.<.;.O f  . .j ] d.",
"p.N.n.N.' j  ...s >.r.q.w.w.w.w.w.w.w.w.w.w.w.w.w.w.w.w.w.w.w.w.w.0.r.8.c t :.<.,.:.= :  . . .k w s.",
"p.n.N.n.F k  . . .< 0.y.w.w.w.w.w.w.w.w.w.w.w.w.w.w.w.w.w.w.w.w.w.e.y.3.7 2.:.>.2.< : .. . . .R m.s.",
"p.C.C.S.[ f  . . .j 6 5.r.0.w.w.w.w.w.w.w.w.r.0.w.w.w.w.w.w.w.w.r.9.y.&.c 2.:.<.N @ k  . . .f P m.x.",
"p.Z.H.H.} : ..k  . .k > 5.r.w.w.w.w.w.w.w.w.w.r.w.w.w.w.w.w.w.w.0.r.8.5 ;.:.:.<.y s  . . .f { U.F.z.",
"p.N.M.M.B.~ f  . . ...f c y.e.q.q.e.w.w.w.w.w.w.w.w.w.w.q.q.w.0.y.e.n C <.:.>.,.:.k  . ..., j.m.D.z.",
"p.N.b.N.c.c.` s ..k  . .s N i.q.q.e.w.w.w.w.w.q.q.w.w.q.q.q.w.w.W n m <.,.,.:.,.&. . . .@ P.v.v.m.s.",
"p.b.b.b.N.N.c.) j  .k  . .# N r.r.e.q.q.q.q.e.u.u.q.w.r.r.;.a n M A 1.,.,.,.<.C f  .k # } H.m.S.N.s.",
"p.b.N.b.N.N.C.I k .. . . . .c r >.9.e.r.r.r.u.4.4.r.w.E i u ;.%.<.,.,.:.<.E ; : k  ...# m.Z.D.F.H.z.",
"p.m.m.c.Z.J.m.g.s f j  . . .X.>.e t m M >.t.4.:.m m C M A ,.<.:.,.,.:.,.<.- s  . . .k G n.c.V.S.S.s.",
"l.H.S.M.c.m.S.M.( S.k.s  . .j Z 2.:.>.m m :.:.:.,.E :.<.<.,.>.,.:.:.2.E ; s ..k k  .k { V.C.n.m.N.a.",
"p.S.F.m.B.v.M.V.B.M.S.@  . .: a <.:.,.<.<.,.,.>.,.,.:.:.:.,.,.:.<.,.C X f  . . . . .@ j.V.n.n.H.H.a.",
"p.m.m.c.B.c.c.m.m.m.B.^ f .., p <.:.,.:.:.,.,.:.>.<.2.,.,.;.>.2.%.4 # f  . .k  . .: L.B.A.J.V.D.N.a.",
"p.N.b.c.b.n.c.c.N.B.v.v.& k k < + i 2.<.<.1.<.1.,.E ; N ;.+ x 4 o f .. .k  . ..., I.m.c.c.A.V.m.b.s.",
"p.N.n.n.c.m.H.A.B.K.M.B.c.U k k , t C m E M C m i # , # < , # s j  . . . .k  ., K C.K.B.V.c.c.c.n.d.",
"p.b.C.J.c.S.K.n.v.m.F.A.c.1  ...k f , # , s @ : f  . .k j  . . . . .k ..j ~ : Y.n.c.m.G.Z.n.N.c.m.s.",
"p.n.J.V.B.V.B.D.Z.v.B.v.n.N.# f k .... . . .k  . . . . . . .k  .k w T : 0 m.P.C.H.Z.c.V.c.N.n.B.N.a.",
"p.n.A.K.V.V.G.V.N.N.v.m.C.D.V._ G 1 f  . . . ... . .k  . ... ...s J n.A.K.V.S.G.A.n.N.v.m.A.V.V.A.d.",
"p.n.b.C.V.m.M.v.v.b.v.C.V.V.m.V.m.N.G j f s f , f .. . . ., s , H n.n.n.m.V.m.m.c.v.b.v.Z.V.V.M.V.s.",
"p.n.n.n.c.m.m.c.v.m.m.b.m.v.m.v.m.n.N.! j.P.' E.R f s j @ k.c.R.m.N.b.N.c.c.m.m.c.c.m.m.b.m.c.m.m.z.",
"p.Z.Z.A.V.S.m.m.S.M.M.N.n.m.S.m.D.N.C.H.C.F.V.c.U.^ P./ B.c.V.m.Z.C.B.Z.V.V.S.m.m.S.M.M.N.N.m.V.m.x.",
"p.B.H.D.S.N.A.N.A.S.S.S.A.N.S.S.M.c.H.D.S.S.C.Z.B.D.S.S.D.C.m.F.S.c.Z.H.S.F.B.A.N.H.V.D.S.A.N.S.F.d.",
"p.n.V.V.m.F.D.c.C.S.V.V.m.n.c.S.B.n.m.F.m.M.D.m.c.A.V.S.m.b.n.B.F.n.n.V.B.m.D.V.c.B.D.V.V.c.c.m.F.z."
};
